<svg xmlns="http://www.w3.org/2000/svg" xmlns:xlink="http://www.w3.org/1999/xlink" version="1.1" id="Layer_1" x="0px" y="0px" width="100px" height="100px" viewBox="2.667 2.667 100 100" enable-background="new 2.667 2.667 100 100" xml:space="preserve">
<g>
	<path fill="#000000" d="M12.5,42.499c0,0.213,0,1.562,0,8.501h81c0-6.938,0-8.288,0-8.501H12.5z"/>
	<path fill="#000000" d="M67.217,91.545C91.311,85.586,93.318,64.261,93.484,54H12.516c0.167,10.261,2.174,31.586,26.268,37.545   C23.431,91.784,12.5,92.401,12.5,93.125c0,0.932,18.132,1.688,40.5,1.688s40.5-0.756,40.5-1.688   C93.5,92.401,82.569,91.785,67.217,91.545z"/>
	<path fill="#000000" d="M43.517,29.015C46.87,23.21,52.5,16.833,52.5,16.833C48.574,16.833,43.698,20.377,43.517,29.015z"/>
	<path fill="#000000" d="M61.5,38.5c0-2.167-6.797-1.62-12.051-0.971C54.691,40.449,61.5,41.037,61.5,38.5z"/>
	<path fill="#000000" d="M43.5,38.25c0.396,0.061,2.916-0.347,5.949-0.721c-3.28-1.827-5.949-4.565-5.949-8.029   c0-0.168,0.014-0.321,0.017-0.485C40.92,33.512,39.689,37.666,43.5,38.25z"/>
	<path fill="#000000" d="M52.25,22.875c0,4,0.903,7.895,6.688,1c1.351-1.61,1.688-2.971,1.452-4.186   C58.745,22.372,52.25,22.875,52.25,22.875z"/>
	<path fill="#000000" d="M60.39,19.689c0.666-1.086,0.54-2.527-1.14-4.439c-0.723-0.824-4.915-6.277-4.915-6.277   C52.594,13.305,59.616,15.702,60.39,19.689z"/>
</g>
</svg>