<svg xmlns="http://www.w3.org/2000/svg" xmlns:xlink="http://www.w3.org/1999/xlink" version="1.1" id="Layer_1" x="0px" y="0px" width="100px" height="100px" viewBox="0 0 100 100" enable-background="new 0 0 100 100" xml:space="preserve">
<g id="Captions">
</g>
<g>
	<path d="M84.279,44.348c0,1.635,0,11.337,0,14.401c0,2.332-0.59,4.742-2.445,6.904c-1.926,2.244-10.285,7.457-13.275,9.225   c-2.051,1.211-3.502-1.373-2.014-2.509c1.531-1.169,9.602-6.176,12.123-7.907c4.625-3.179,0.176-10.148-5.455-6.852   c-2.436,1.426-5.041,2.861-10.354,5.957c-5.115,2.979-8.521,6.788-9.555,16.846c-0.514,5.006,2.531,18.678,2.531,18.678h17.186   c0-11.957,14.049-21.873,17.371-27.914c2.104-3.826,2.402-5.43,2.402-8.769c0-5.173,0-16.338,0-18.06   C92.795,37.778,84.279,37.922,84.279,44.348z"/>
	<path d="M37.139,63.567c-5.313-3.095-7.917-4.53-10.354-5.957c-5.631-3.298-10.08,3.673-5.456,6.851   c2.522,1.733,10.592,6.738,12.124,7.907c1.487,1.136,0.037,3.72-2.013,2.509c-2.99-1.767-11.351-6.979-13.277-9.223   c-1.855-2.162-2.444-4.573-2.444-6.906c0-3.062,0-12.765,0-14.4c0-6.426-8.516-6.57-8.516,0c0,1.722,0,12.887,0,18.059   c0,3.341,0.299,4.943,2.402,8.77c3.321,6.042,17.372,15.958,17.372,27.913l17.185,0.001c0,0,3.044-13.672,2.53-18.678   C45.66,70.355,42.254,66.547,37.139,63.567z"/>
	<path d="M21.378,44.062c0,1.535,0.924,3.309,2.101,4.042l23.301,13.54V37.288L21.378,22.666V44.062z"/>
	<path d="M53.246,61.645l23.301-13.54c1.178-0.733,2.102-2.507,2.102-4.042V22.666L53.246,37.288V61.645z"/>
	<path d="M52.263,1.342c-1.226-0.65-3.223-0.561-4.551,0.209L22.572,15.81l27.441,15.793L77.4,15.843L52.263,1.342z"/>
</g>
</svg>