<svg xmlns="http://www.w3.org/2000/svg" xmlns:xlink="http://www.w3.org/1999/xlink" version="1.1" id="Layer_1" x="0px" y="0px" width="100px" height="100px" viewBox="0 0 100 100" enable-background="new 0 0 100 100" xml:space="preserve">
<g>
	<rect x="13.255" y="71.603" transform="matrix(-0.8642 -0.5032 0.5032 -0.8642 -8.1973 155.8929)" width="7.371" height="14.9"/>
	<circle cx="22.532" cy="69.451" r="3.107"/>
	<rect x="14.717" y="85.622" transform="matrix(-0.9855 0.1695 -0.1695 -0.9855 47.5768 174.1301)" width="3.278" height="6.947"/>
	<rect x="13.301" y="91.917" transform="matrix(-0.8168 -0.5769 0.5769 -0.8168 -27.886 181.9245)" width="3.279" height="6.946"/>
	<rect x="3.45" y="85.376" transform="matrix(0.5774 -0.8165 0.8165 0.5774 -70.3904 41.7014)" width="3.279" height="6.946"/>
	<circle cx="16.943" cy="92.555" r="1.641"/>
	<path d="M12.656,96.61c0.893-0.153,1.74,0.445,1.893,1.338c0.154,0.894-0.446,1.742-1.338,1.896   c-0.894,0.153-1.742-0.448-1.895-1.34C11.165,97.611,11.763,96.764,12.656,96.61z"/>
	<rect x="22.109" y="73.579" transform="matrix(0.5032 -0.8642 0.8642 0.5032 -54.2993 58.7393)" width="3.659" height="6.035"/>
	<rect x="12.114" y="69.882" transform="matrix(-0.2552 -0.9669 0.9669 -0.2552 -53.3418 104.7073)" width="3.091" height="6.035"/>
	<rect x="7.855" y="73.119" transform="matrix(-0.8643 -0.5029 0.5029 -0.8643 -20.7647 146.6703)" width="3.09" height="6.034"/>
	<rect x="26.313" y="72.807" transform="matrix(-0.8642 -0.5031 0.5031 -0.8642 13.7839 155.3676)" width="3.09" height="6.033"/>
	<rect x="7.938" y="83.917" transform="matrix(-0.8642 -0.5032 0.5032 -0.8642 -26.2394 168.1562)" width="3.278" height="7.406"/>
	<circle cx="7.756" cy="90.749" r="1.641"/>
	<circle cx="2.069" cy="86.682" r="1.64"/>
	<path d="M12.153,74.429c-0.431,0.739-1.378,0.989-2.114,0.559C9.3,74.559,9.05,73.611,9.479,72.875   c0.429-0.736,1.377-0.989,2.115-0.559C12.332,72.746,12.583,73.692,12.153,74.429z"/>
	<circle cx="26.386" cy="78.349" r="1.545"/>
	<circle cx="29.403" cy="73.18" r="1.545"/>
	<circle cx="7.879" cy="78.75" r="1.546"/>
	<circle cx="21.324" cy="75.096" r="1.849"/>
	<circle cx="16.65" cy="72.406" r="1.849"/>
</g>
<g>
	<rect x="40.895" y="52.63" width="4.104" height="47.31"/>
	<rect x="51.926" y="19.493" transform="matrix(-0.707 -0.7072 0.7072 -0.707 62.5013 109.7124)" width="4.104" height="44.831"/>
	<rect x="80.712" y="19.493" transform="matrix(-0.7072 0.707 -0.707 -0.7072 170.927 13.0344)" width="4.105" height="44.832"/>
	<rect x="90.94" y="52.63" width="4.104" height="47.31"/>
</g>
<g>
	<rect x="30.949" y="77.614" width="21.75" height="11.96"/>
	<polygon points="51.926,72.378 51.926,94.811 60.89,83.595  "/>
</g>
</svg>