<?xml version="1.0" encoding="utf-8"?>
<!-- Generator: Adobe Illustrator 16.0.0, SVG Export Plug-In . SVG Version: 6.00 Build 0)  -->
<!DOCTYPE svg PUBLIC "-//W3C//DTD SVG 1.1//EN" "http://www.w3.org/Graphics/SVG/1.1/DTD/svg11.dtd">
<svg version="1.1" id="Layer_1" xmlns="http://www.w3.org/2000/svg" xmlns:xlink="http://www.w3.org/1999/xlink" x="0px" y="0px"
	 width="100.001px" height="70.031px" viewBox="0 0 100.001 70.031" enable-background="new 0 0 100.001 70.031"
	 xml:space="preserve">
<g id="Layer_2">
	<path fill="#010101" d="M49.141,8.622c-4.466,0-8.088,3.624-8.088,8.088v7.405h16.172v-7.405
		C57.225,12.246,53.607,8.622,49.141,8.622z"/>
	<path fill="#010101" d="M63.505,23.402c-0.165,0-0.332-0.027-0.489-0.087c-0.733-0.271-1.103-1.077-0.832-1.809
		c0.26-0.707,1.093-1.093,1.807-0.833c0.731,0.27,1.103,1.08,0.831,1.809C64.625,23.035,64.093,23.402,63.505,23.402L63.505,23.402z
		"/>
	<path fill="#010101" d="M34.688,23.154c-0.602,0-1.135-0.381-1.333-0.945c-0.128-0.357-0.103-0.738,0.062-1.077
		c0.169-0.342,0.452-0.594,0.8-0.712c0.677-0.239,1.446,0.101,1.745,0.729h0.009l0.045,0.134c0.254,0.739-0.134,1.537-0.87,1.792
		C34.997,23.132,34.846,23.154,34.688,23.154L34.688,23.154z"/>
	<path fill="#010101" d="M64.394,19.34c-0.032,0-0.071,0-0.106,0c-0.778-0.064-1.362-0.748-1.297-1.524
		c0.061-0.763,0.734-1.366,1.517-1.287c0.378,0.025,0.722,0.198,0.959,0.485c0.132,0.161,0.23,0.328,0.285,0.515l0.103-0.136
		l-0.055,0.644C65.746,18.767,65.128,19.34,64.394,19.34L64.394,19.34z"/>
	<path fill="#010101" d="M33.862,19.076c-0.74,0-1.357-0.579-1.405-1.316c0-0.046,0-0.085,0-0.128c0-0.006-0.008-0.047-0.008-0.087
		c-0.041-0.776,0.555-1.442,1.332-1.475c0,0,0,0,0.007,0c0.794,0,1.401,0.549,1.472,1.259v0.012l0.006,0.062c0,0.041,0,0.079,0,0.11
		l0.007,0.072c0.023,0.373-0.103,0.736-0.355,1.015c-0.247,0.285-0.586,0.45-0.969,0.476H33.862L33.862,19.076z"/>
	<path fill="#010101" d="M64.166,15.19c-0.676,0-1.262-0.485-1.384-1.143c-0.076-0.375,0-0.746,0.217-1.054
		c0.206-0.32,0.522-0.524,0.897-0.596c0.769-0.151,1.506,0.365,1.646,1.11c0.155,0.761-0.348,1.498-1.108,1.649
		C64.34,15.172,64.25,15.19,64.166,15.19L64.166,15.19z"/>
	<path fill="#010101" d="M34.211,14.738c-0.111,0-0.211-0.006-0.314-0.031c-0.369-0.087-0.679-0.311-0.883-0.625
		c-0.2-0.32-0.262-0.699-0.18-1.063c0.167-0.74,0.941-1.229,1.688-1.062c0.753,0.172,1.23,0.928,1.063,1.681
		C35.439,14.28,34.863,14.738,34.211,14.738L34.211,14.738z"/>
	<path fill="#010101" d="M62.823,11.248c-0.54,0-1.023-0.295-1.26-0.778c-0.352-0.691-0.072-1.54,0.623-1.887
		c0.679-0.342,1.549-0.048,1.892,0.625c0.346,0.691,0.068,1.539-0.632,1.889C63.25,11.197,63.038,11.248,62.823,11.248
		L62.823,11.248z"/>
	<path fill="#010101" d="M35.67,10.842c-0.231,0-0.468-0.056-0.666-0.167c-0.691-0.371-0.943-1.229-0.575-1.91
		c0.359-0.66,1.246-0.928,1.914-0.573c0.681,0.375,0.934,1.23,0.564,1.912C36.663,10.557,36.185,10.842,35.67,10.842L35.67,10.842z"
		/>
	<path fill="#010101" d="M60.458,7.82c-0.395,0-0.769-0.167-1.037-0.46c-0.252-0.276-0.388-0.645-0.362-1.015
		c0.014-0.373,0.181-0.722,0.458-0.977C60.06,4.87,61,4.909,61.506,5.464c0.515,0.573,0.479,1.469-0.095,1.991
		C61.149,7.692,60.819,7.82,60.458,7.82L60.458,7.82z"/>
	<path fill="#010101" d="M38.132,7.488c-0.367,0-0.714-0.144-0.979-0.398c-0.563-0.54-0.578-1.429-0.039-1.989
		c0.524-0.542,1.452-0.557,1.989-0.033c0.567,0.542,0.581,1.431,0.041,1.992C38.877,7.337,38.52,7.488,38.132,7.488L38.132,7.488z"
		/>
	<path fill="#010101" d="M57.269,5.153c-0.268,0-0.525-0.08-0.743-0.213l-0.218-0.134l0.021-0.013
		c-0.217-0.192-0.368-0.445-0.433-0.732c-0.087-0.371-0.021-0.745,0.185-1.063c0.396-0.641,1.299-0.848,1.942-0.443
		c0.32,0.198,0.542,0.509,0.619,0.879c0.096,0.365,0.029,0.748-0.18,1.065C58.208,4.909,57.758,5.153,57.269,5.153L57.269,5.153z"/>
	<path fill="#010101" d="M41.398,4.909c-0.499,0-0.959-0.262-1.213-0.691c-0.192-0.326-0.245-0.705-0.149-1.071
		c0.093-0.363,0.322-0.666,0.65-0.856c0.65-0.382,1.547-0.144,1.927,0.499c0.396,0.668,0.165,1.53-0.501,1.928
		C41.899,4.847,41.645,4.909,41.398,4.909L41.398,4.909z"/>
	<path fill="#010101" d="M53.479,3.441c-0.134,0-0.271-0.025-0.398-0.064c-0.743-0.223-1.172-0.998-0.951-1.743
		c0.212-0.722,1.018-1.167,1.753-0.953c0.359,0.103,0.662,0.351,0.837,0.675c0.181,0.332,0.221,0.712,0.116,1.077
		C54.653,3.022,54.098,3.441,53.479,3.441L53.479,3.441z"/>
	<path fill="#010101" d="M45.241,3.315c-0.637,0-1.201-0.429-1.36-1.046c-0.095-0.367-0.047-0.747,0.144-1.071
		c0.19-0.326,0.493-0.557,0.858-0.652c0.745-0.2,1.531,0.27,1.72,1.007c0.2,0.746-0.254,1.514-1.007,1.714
		C45.482,3.298,45.358,3.315,45.241,3.315L45.241,3.315z"/>
	<path fill="#010101" d="M49.37,2.814h-0.014c-0.378-0.008-0.731-0.159-0.992-0.429c-0.27-0.268-0.408-0.627-0.408-0.998
		C47.976,0.619,48.601,0,49.37,0c0.794,0.008,1.423,0.65,1.403,1.429C50.767,2.195,50.132,2.814,49.37,2.814L49.37,2.814z"/>
	<path fill="#010101" d="M95.983,26.127H4.014c-5.351,0-5.351,7.506,0,7.506h9.375l2.919,10.508h15.208v15.801h4.07v10.089h28.827
		v-25.89h19.279l2.918-10.508h9.374C101.34,33.633,101.34,26.127,95.983,26.127z M49.005,44.203
		c-2.979-2.831-5.963-5.667-5.961-8.495c0.002-1.566,1.341-2.828,2.991-2.826c1.483,0.002,2.413,1.339,2.968,2.718
		c0.563-1.378,1.487-2.716,2.969-2.718c1.646-0.002,2.989,1.26,2.991,2.826C54.969,38.538,51.988,41.372,49.005,44.203z"/>
</g>
</svg>
