<?xml version="1.0" encoding="utf-8"?>
<!-- Generator: Adobe Illustrator 16.0.0, SVG Export Plug-In . SVG Version: 6.00 Build 0)  -->
<!DOCTYPE svg PUBLIC "-//W3C//DTD SVG 1.1//EN" "http://www.w3.org/Graphics/SVG/1.1/DTD/svg11.dtd">
<svg version="1.1" id="Layer_1" xmlns="http://www.w3.org/2000/svg" xmlns:xlink="http://www.w3.org/1999/xlink" x="0px" y="0px"
	 width="99.999px" height="92.264px" viewBox="0 0 99.999 92.264" enable-background="new 0 0 99.999 92.264" xml:space="preserve">
<path fill="#010101" d="M90.899,38.801l7.005-7.007c2.793-2.793,2.793-7.365,0-10.159l-0.379-0.383
	c-1.257-1.252-2.87-1.912-4.52-2.041l2.006-2.005c3.265-3.264,3.265-8.606,0-11.872l-0.349-0.348
	c-3.207-3.203-8.397-3.243-11.678-0.159c1.273,1.886,1.964,4.108,1.964,6.442c0,2.438-0.75,4.756-2.133,6.692
	c0.452,0.322,0.88,0.682,1.274,1.076l0.385,0.386c1.938,1.94,3.009,4.528,3.009,7.289s-1.069,5.349-3.012,7.292l-2.94,2.94
	c0.604,0.371,1.162,0.812,1.673,1.321C87,42.06,86.817,48.419,82.796,52.438L64.151,71.083c-0.622,0.759-1.275,1.483-1.944,2.156
	L48.659,86.788c-2.198,2.194-4.697,3.986-7.395,5.367c7.462,0.618,15.146-1.901,20.821-7.579l13.544-13.544
	c0.654-0.657,1.265-1.34,1.839-2.049l18.759-18.757c2.791-2.792,2.975-7.181,0.406-9.751C95.124,38.963,92.979,38.432,90.899,38.801
	z"/>
<path fill="#010101" d="M75.26,38.801l7.004-7.007c2.794-2.793,2.794-7.365,0-10.159l-0.379-0.383
	c-1.257-1.252-2.869-1.912-4.519-2.041l2.005-2.005c3.266-3.264,3.266-8.606,0-11.872l-0.348-0.348
	c-3.269-3.264-8.608-3.264-11.876,0l-1.999,2.002c-0.128-1.647-0.788-3.258-2.044-4.511l-0.378-0.383
	c-2.796-2.793-7.368-2.793-10.16,0L31.756,22.907c0.033-3.256-1.71-6.292-4.684-7.556c-4.022-1.71-8.832,0.454-10.68,4.807
	L1.904,54.264c-1.307,3.351-2.741,7.65-1.306,14.82c0,0,0.233,1.374,0.779,3.104c0.031,0.097,0.062,0.185,0.092,0.281
	c0.078,0.238,0.163,0.487,0.253,0.734C2.976,76.928,5.046,80.429,8,83.383l1.198,1.197c10.244,10.244,27.009,10.244,37.25,0
	l13.544-13.545c0.656-0.656,1.268-1.341,1.839-2.046L80.59,50.229c2.792-2.794,2.976-7.181,0.409-9.75
	C79.484,38.963,77.34,38.432,75.26,38.801z"/>
</svg>
